# xmcd CD database file
#
# Track frame offsets:
#	150
#	19246
#	50479
#	71152
#	101290
#	125519
#	159500
#	174721
#	200313
#	222432
#	241823
#	275571
#	292646
#	313276
#
# Disc length: 4521 seconds
#
# Revision: 0
# Processed by: cddbd v1.5PL3 Copyright (c) Steve Scherf et al.
# Submitted via: CDex 1.51
#
DISCID=cd11a70e
DTITLE=Paul "Sequence" Ferguson - Father
DYEAR=2003
DGENRE=Jazz
TTITLE0=Time Charts
TTITLE1=Nubian Queen
TTITLE2=We Will One Day
TTITLE3=Spiced Wine
TTITLE4=Loving You
TTITLE5=Love
TTITLE6=Passion 
TTITLE7=Bass Jam
TTITLE8=Funk U - 2
TTITLE9=Be Bop Jazz
TTITLE10=Grooving in Park Chester
TTITLE11=For You Pauline
TTITLE12=Effortless Love
TTITLE13=If Only
EXTD=YEAR: 2003
EXTT0=
EXTT1=
EXTT2=
EXTT3=
EXTT4=
EXTT5=
EXTT6=
EXTT7=
EXTT8=
EXTT9=
EXTT10=
EXTT11=
EXTT12=
EXTT13=
PLAYORDER=
